<?xml version="1.0" encoding="UTF-8"?>
<svg width="540.52" height="80.869" version="1.1" viewBox="0 0 143.01203 21.396378" xmlns="http://www.w3.org/2000/svg" xmlns:cc="http://creativecommons.org/ns#" xmlns:dc="http://purl.org/dc/elements/1.1/" xmlns:rdf="http://www.w3.org/1999/02/22-rdf-syntax-ns#">
<metadata>
<rdf:RDF>
<cc:Work rdf:about="">
<dc:format>image/svg+xml</dc:format>
<dc:type rdf:resource="http://purl.org/dc/dcmitype/StillImage"/>
<dc:title/>
</cc:Work>
</rdf:RDF>
</metadata>
<g transform="matrix(2.3774 0 0 2.3774 -.00085679 -41.515)">
<g transform="translate(-52.356 -99.492)">
<path d="m77.361 118.01q0.08467 0.15875 0.09525 0.28575 0.02117 0.127 0.02117 0.37042v5.8738q0 0.73025-0.40217 0.85725-0.20108 0.0635-0.508 0.0635t-0.48683-0.0529-0.27517-0.127-0.14817-0.21167q-0.05292-0.17991-0.05292-0.55033v-3.5454q-0.26458 0.32809-0.77258 1.0478-0.508 0.70909-0.64558 0.889-0.13758 0.17992-0.1905 0.254-0.05292 0.0635-0.26458 0.1905-0.20108 0.11642-0.4445 0.11642-0.23283 0-0.43392-0.10583-0.1905-0.11642-0.27517-0.22225l-0.08467-0.11642q-0.21167-0.26458-0.83608-1.1218-0.62442-0.86784-0.67733-0.93134v3.5666q0 0.24341-0.02117 0.37041-0.01058 0.11642-0.09525 0.26459-0.15875 0.28575-0.8255 0.28575-0.64558 0-0.80433-0.28575-0.08467-0.14817-0.10583-0.27517-0.01058-0.127-0.01058-0.381v-5.8738q0-0.24342 0.01058-0.35983 0.02117-0.127 0.10583-0.28575 0.15875-0.27517 0.8255-0.27517 0.28575 0 0.48683 0.0741 0.21167 0.0635 0.27517 0.13759l0.0635 0.0635 2.4024 3.1538q1.7992-2.3812 2.4024-3.1432 0.17992-0.28575 0.84667-0.28575 0.67733 0 0.8255 0.28575z"/>
<path d="m78.315 120.83q0-0.24342 0.01058-0.35984 0.02117-0.127 0.09525-0.28575 0.14817-0.27516 0.8255-0.27516 0.508 0 0.71967 0.17991 0.17992 0.14817 0.1905 0.45509 0.01058 0.10583 0.01058 0.30691v3.7042q0 0.24342-0.02117 0.37042-0.01058 0.11641-0.09525 0.27516-0.13758 0.27517-0.81492 0.27517-0.66675 0-0.81492-0.28575-0.07408-0.15875-0.09525-0.27517-0.01058-0.11641-0.01058-0.37041zm1.7357-1.9579q-0.07408 0.14817-0.27517 0.21167-0.20108 0.0635-0.53975 0.0635-0.32808 0-0.52917-0.0635-0.20108-0.0635-0.28575-0.22225-0.07408-0.15875-0.09525-0.27517-0.01058-0.127-0.01058-0.37042 0-0.24341 0.01058-0.35983 0.02117-0.127 0.09525-0.27517 0.14817-0.28575 0.8255-0.28575 0.66675 0 0.80433 0.28575 0.08467 0.15875 0.09525 0.28575 0.02117 0.11642 0.02117 0.35984 0 0.24341-0.02117 0.37041-0.01058 0.11642-0.09525 0.27517z"/>
<path d="m84.886 122.68 1.1748 1.1853q0.381 0.381 0.381 0.65617 0 0.26458-0.381 0.64558-0.381 0.37042-0.64558 0.37042t-0.64558-0.381l-1.1642-1.1748-1.1748 1.1748q-0.381 0.381-0.64558 0.381-0.254 0-0.64558-0.37042-0.381-0.381-0.381-0.64558 0-0.27517 0.381-0.65617l1.1748-1.1853-1.1748-1.1853q-0.381-0.381-0.381-0.64559 0-0.27516 0.381-0.65616 0.39158-0.381 0.64558-0.381 0.26458 0 0.64558 0.381l1.1748 1.1853 1.1642-1.1853q0.381-0.381 0.64558-0.381t0.64558 0.381 0.381 0.65616q0 0.26459-0.381 0.64559z"/>
<path d="m90.547 117.58q0.08467-0.15875 0.28575-0.22225t0.52917-0.0635q0.33867 0 0.53975 0.0635t0.27517 0.22225q0.08467 0.15875 0.09525 0.28575 0.02117 0.11642 0.02117 0.35984v6.3182q0 0.24341-0.02117 0.37041-0.01058 0.11642-0.09525 0.26459-0.15875 0.28575-0.89958 0.28575-0.73025 0-0.81492-0.51859-0.4445 0.508-1.2382 0.508-0.9525 0-1.7357-0.8255-0.78317-0.83608-0.78317-1.9368 0-1.1112 0.78317-1.9473 0.79375-0.83608 1.7357-0.83608 0.78317 0 1.2171 0.52916v-2.2225q0-0.24341 0.01058-0.35983 0.02117-0.127 0.09525-0.27517zm-1.7145 5.7468q0.27517 0.28575 0.66675 0.28575t0.64558-0.28575q0.26458-0.28575 0.26458-0.62441 0-0.34925-0.254-0.64559-0.24342-0.29633-0.66675-0.29633t-0.67733 0.29633q-0.254 0.28575-0.254 0.635t0.27517 0.635z"/>
<path d="m96.925 119.96q0.20108 0.0635 0.32808 0.22225 0.13758 0.14817 0.13758 0.48684 0 0.33866-0.20108 0.74083t-0.58208 0.40217q-0.1905 0-0.37042-0.0847-0.16933-0.0847-0.45508-0.0847t-0.53975 0.20109q-0.24342 0.20108-0.24342 0.48683v2.2225q0 0.24342-0.02117 0.37042-0.01058 0.11641-0.09525 0.27516-0.15875 0.27517-0.8255 0.27517-0.508 0-0.73025-0.17992-0.16933-0.14816-0.1905-0.45508 0-0.10583 0-0.30692v-3.7148q0-0.24341 0.01058-0.35983 0.02117-0.127 0.09525-0.27517 0.14817-0.28575 0.8255-0.28575 0.635 0 0.79375 0.24342 0.11642 0.16933 0.11642 0.34925 0.05292-0.0741 0.14817-0.17992 0.10583-0.10583 0.43392-0.28575 0.32808-0.17991 0.5715-0.17991 0.254 0 0.42333 0.0317 0.16933 0.0212 0.37042 0.0847z"/>
<path d="m97.973 120.83q0-0.24342 0.01058-0.35984 0.02117-0.127 0.09525-0.28575 0.14817-0.27516 0.8255-0.27516 0.508 0 0.71967 0.17991 0.17992 0.14817 0.1905 0.45509 0.01058 0.10583 0.01058 0.30691v3.7042q0 0.24342-0.02117 0.37042-0.01058 0.11641-0.09525 0.27516-0.13758 0.27517-0.81492 0.27517-0.66675 0-0.81492-0.28575-0.07408-0.15875-0.09525-0.27517-0.01058-0.11641-0.01058-0.37041zm1.7357-1.9579q-0.07408 0.14817-0.27517 0.21167-0.20108 0.0635-0.53975 0.0635-0.32808 0-0.52917-0.0635-0.20108-0.0635-0.28575-0.22225-0.07408-0.15875-0.09525-0.27517-0.01058-0.127-0.01058-0.37042 0-0.24341 0.01058-0.35983 0.02117-0.127 0.09525-0.27517 0.14817-0.28575 0.8255-0.28575 0.66675 0 0.80433 0.28575 0.08467 0.15875 0.09525 0.28575 0.02117 0.11642 0.02117 0.35984 0 0.24341-0.02117 0.37041-0.01058 0.11642-0.09525 0.27517z"/>
<path d="m106.3 120.03q0.55033 0.32809 0.55033 0.6985 0 0.21167-0.21167 0.58209l-2.1908 3.7571q-0.10583 0.17992-0.33866 0.32808-0.23284 0.13759-0.46567 0.13759-0.22225 0-0.43392-0.10584-0.20108-0.11641-0.28575-0.23283l-0.0952-0.11642-2.2013-3.7677q-0.21167-0.34925-0.21167-0.5715 0-0.381 0.55034-0.70909 0.40216-0.23283 0.635-0.23283 0.23283 0 0.35983 0.14817 0.13758 0.13758 0.28575 0.42333l1.3864 2.667 1.3864-2.667q0.11642-0.20108 0.16934-0.28575 0.0635-0.0952 0.1905-0.17992 0.127-0.0953 0.33866-0.0953 0.21167 0 0.58209 0.22225z"/>
<path d="m112.51 122.03q0 0.64559-0.32809 0.96309-0.3175 0.30691-0.70908 0.30691h-2.5082q0 0.29634 0.34925 0.49742t0.6985 0.20108q0.61383 0 0.96308-0.127l0.11642-0.0423q0.254-0.11642 0.42333-0.11642 0.33867 0 0.58209 0.47625 0.13758 0.28575 0.13758 0.48684 0 0.94191-2.2542 0.94191-0.78317 0-1.397-0.26458-0.60325-0.27517-0.94192-0.71967-0.66675-0.85725-0.66675-1.9156 0-1.3335 0.85725-2.1272 0.86784-0.80433 2.159-0.80433 1.4711 0 2.159 1.0372 0.35984 0.55034 0.35984 1.2065zm-2.2331 0.30692q0.40217 0 0.40217-0.33867 0-0.24341-0.1905-0.39158-0.17992-0.14817-0.52917-0.14817-0.33866 0-0.67733 0.28575-0.33867 0.27517-0.33867 0.59267z"/>
<g transform="translate(0 -.0463)" fill="#574b90">
<path transform="scale(.26458)" d="m201.5 442.21c-2.0022 0-3.6152 1.611-3.6152 3.6133v26.787c0 2.0022 1.613 3.6152 3.6152 3.6152h49.34c2.0022 0 3.6133-1.613 3.6133-3.6152v-26.787c0-2.0022-1.611-3.6133-3.6133-3.6133h-3.1934l-0.64649 2.7031c-0.46012 1.9238-2.2076 3.5215-4.9492 3.5215h-31.762c-2.7417 0-4.4891-1.5977-4.9492-3.5215l-0.64649-2.7031zm14.084 12.566a4.0406 4.0406 0 0 1 4.041 4.041 4.0406 4.0406 0 0 1 -4.041 4.041 4.0406 4.0406 0 0 1 -4.0391 -4.041 4.0406 4.0406 0 0 1 4.0391 -4.041zm22.141 0a4.0406 4.0406 0 0 1 4.0391 4.041 4.0406 4.0406 0 0 1 -4.0391 4.041 4.0406 4.0406 0 0 1 -4.041 -4.041 4.0406 4.0406 0 0 1 4.041 -4.041z" stroke-width=".57172"/>
<path transform="scale(.26458)" d="m206.77 442.21 0.19922 0.90625c0.42407 1.9238 2.0338 3.5234 4.5606 3.5234h29.271c2.5267 0 4.1384-1.5996 4.5625-3.5234l0.19922-0.90625z" stroke-width=".64225"/>
</g>
</g>
</g>
</svg>
