<?xml version="1.0" encoding="UTF-8" standalone="no"?>
<!-- Created with Inkscape (http://www.inkscape.org/) -->

<svg
   xmlns:dc="http://purl.org/dc/elements/1.1/"
   xmlns:cc="http://creativecommons.org/ns#"
   xmlns:rdf="http://www.w3.org/1999/02/22-rdf-syntax-ns#"
   xmlns:svg="http://www.w3.org/2000/svg"
   xmlns="http://www.w3.org/2000/svg"
   xmlns:sodipodi="http://sodipodi.sourceforge.net/DTD/sodipodi-0.dtd"
   xmlns:inkscape="http://www.inkscape.org/namespaces/inkscape"
   width="60.150272mm"
   height="8.9999657mm"
   viewBox="0 0 60.150272 8.9999657"
   version="1.1"
   id="svg8"
   inkscape:version="0.92.3 (2405546, 2018-03-11)"
   sodipodi:docname="logosvg.svg">
  <defs
     id="defs2" />
  <sodipodi:namedview
     id="base"
     pagecolor="#f8f8f8"
     bordercolor="#666666"
     borderopacity="1.0"
     inkscape:pageopacity="0"
     inkscape:pageshadow="2"
     inkscape:zoom="3.0075961"
     inkscape:cx="98.114215"
     inkscape:cy="-44.286075"
     inkscape:document-units="mm"
     inkscape:current-layer="layer1"
     showgrid="false"
     fit-margin-top="0"
     fit-margin-left="0"
     fit-margin-right="0"
     fit-margin-bottom="0"
     inkscape:window-width="1920"
     inkscape:window-height="1016"
     inkscape:window-x="0"
     inkscape:window-y="27"
     inkscape:window-maximized="1" />
  <metadata
     id="metadata5">
    <rdf:RDF>
      <cc:Work
         rdf:about="">
        <dc:format>image/svg+xml</dc:format>
        <dc:type
           rdf:resource="http://purl.org/dc/dcmitype/StillImage" />
        <dc:title></dc:title>
      </cc:Work>
    </rdf:RDF>
  </metadata>
  <g
     inkscape:label="Layer 1"
     inkscape:groupmode="layer"
     id="layer1"
     transform="translate(-52.355977,-116.95379)">
    <path
       inkscape:connector-curvature="0"
       id="path4600"
       style="font-style:normal;font-variant:normal;font-weight:normal;font-stretch:normal;font-size:medium;line-height:1.25;font-family:'Fredoka One';-inkscape-font-specification:'Fredoka One';letter-spacing:0px;word-spacing:0px;fill:#000000;fill-opacity:1;stroke:none;stroke-width:0.26458332"
       d="m 77.361147,118.01419 q 0.08467,0.15875 0.09525,0.28575 0.02117,0.127 0.02117,0.37042 v 5.87375 q 0,0.73025 -0.402167,0.85725 -0.201083,0.0635 -0.508,0.0635 -0.306916,0 -0.486833,-0.0529 -0.179917,-0.0529 -0.275167,-0.127 -0.09525,-0.0741 -0.148166,-0.21167 -0.05292,-0.17991 -0.05292,-0.55033 v -3.54542 q -0.264583,0.32809 -0.772583,1.04775 -0.508,0.70909 -0.645584,0.889 -0.137583,0.17992 -0.1905,0.254 -0.05292,0.0635 -0.264583,0.1905 -0.201083,0.11642 -0.4445,0.11642 -0.232833,0 -0.433917,-0.10583 -0.1905,-0.11642 -0.275166,-0.22225 l -0.08467,-0.11642 q -0.211667,-0.26458 -0.836083,-1.12183 -0.624417,-0.86784 -0.677334,-0.93134 v 3.56659 q 0,0.24341 -0.02117,0.37041 -0.01058,0.11642 -0.09525,0.26459 -0.15875,0.28575 -0.8255,0.28575 -0.645583,0 -0.804333,-0.28575 -0.08467,-0.14817 -0.105834,-0.27517 -0.01058,-0.127 -0.01058,-0.381 v -5.87375 q 0,-0.24342 0.01058,-0.35983 0.02117,-0.127 0.105834,-0.28575 0.15875,-0.27517 0.825499,-0.27517 0.28575,0 0.486834,0.0741 0.211666,0.0635 0.275166,0.13759 l 0.0635,0.0635 2.402417,3.15383 q 1.799167,-2.38125 2.402417,-3.14325 0.179916,-0.28575 0.846666,-0.28575 0.677334,0 0.8255,0.28575 z" />
    <path
       inkscape:connector-curvature="0"
       id="path4602"
       style="font-style:normal;font-variant:normal;font-weight:normal;font-stretch:normal;font-size:medium;line-height:1.25;font-family:'Fredoka One';-inkscape-font-specification:'Fredoka One';letter-spacing:0px;word-spacing:0px;fill:#000000;fill-opacity:1;stroke:none;stroke-width:0.26458332"
       d="m 78.315135,120.82936 q 0,-0.24342 0.01058,-0.35984 0.02117,-0.127 0.09525,-0.28575 0.148167,-0.27516 0.8255,-0.27516 0.508,0 0.719667,0.17991 0.179917,0.14817 0.1905,0.45509 0.01058,0.10583 0.01058,0.30691 v 3.70417 q 0,0.24342 -0.02117,0.37042 -0.01058,0.11641 -0.09525,0.27516 -0.137584,0.27517 -0.814917,0.27517 -0.66675,0 -0.814917,-0.28575 -0.07408,-0.15875 -0.09525,-0.27517 -0.01058,-0.11641 -0.01058,-0.37041 z m 1.735667,-1.95792 q -0.07408,0.14817 -0.275167,0.21167 -0.201083,0.0635 -0.53975,0.0635 -0.328083,0 -0.529167,-0.0635 -0.201083,-0.0635 -0.28575,-0.22225 -0.07408,-0.15875 -0.09525,-0.27517 -0.01058,-0.127 -0.01058,-0.37042 0,-0.24341 0.01058,-0.35983 0.02117,-0.127 0.09525,-0.27517 0.148167,-0.28575 0.8255,-0.28575 0.66675,0 0.804334,0.28575 0.08467,0.15875 0.09525,0.28575 0.02117,0.11642 0.02117,0.35984 0,0.24341 -0.02117,0.37041 -0.01058,0.11642 -0.09525,0.27517 z" />
    <path
       inkscape:connector-curvature="0"
       id="path4604"
       style="font-style:normal;font-variant:normal;font-weight:normal;font-stretch:normal;font-size:medium;line-height:1.25;font-family:'Fredoka One';-inkscape-font-specification:'Fredoka One';letter-spacing:0px;word-spacing:0px;fill:#000000;fill-opacity:1;stroke:none;stroke-width:0.26458332"
       d="m 84.885896,122.68144 1.17475,1.18533 q 0.381,0.381 0.381,0.65617 0,0.26458 -0.381,0.64558 -0.381,0.37042 -0.645583,0.37042 -0.264583,0 -0.645583,-0.381 l -1.164167,-1.17475 -1.17475,1.17475 q -0.381,0.381 -0.645583,0.381 -0.254,0 -0.645583,-0.37042 -0.381,-0.381 -0.381,-0.64558 0,-0.27517 0.381,-0.65617 l 1.17475,-1.18533 -1.17475,-1.18533 q -0.381,-0.381 -0.381,-0.64559 0,-0.27516 0.381,-0.65616 0.391583,-0.381 0.645583,-0.381 0.264583,0 0.645583,0.381 l 1.17475,1.18533 1.164167,-1.18533 q 0.381,-0.381 0.645583,-0.381 0.264583,0 0.645583,0.381 0.381,0.381 0.381,0.65616 0,0.26459 -0.381,0.64559 z" />
    <path
       inkscape:connector-curvature="0"
       id="path4606"
       style="font-style:normal;font-variant:normal;font-weight:normal;font-stretch:normal;font-size:medium;line-height:1.25;font-family:'Fredoka One';-inkscape-font-specification:'Fredoka One';letter-spacing:0px;word-spacing:0px;fill:#000000;fill-opacity:1;stroke:none;stroke-width:0.26458332"
       d="m 90.546657,117.58027 q 0.08467,-0.15875 0.28575,-0.22225 0.201083,-0.0635 0.529167,-0.0635 0.338666,0 0.53975,0.0635 0.201083,0.0635 0.275166,0.22225 0.08467,0.15875 0.09525,0.28575 0.02117,0.11642 0.02117,0.35984 v 6.31825 q 0,0.24341 -0.02117,0.37041 -0.01058,0.11642 -0.09525,0.26459 -0.15875,0.28575 -0.899583,0.28575 -0.73025,0 -0.814916,-0.51859 -0.4445,0.508 -1.23825,0.508 -0.9525,0 -1.735667,-0.8255 -0.783167,-0.83608 -0.783167,-1.93675 0,-1.11125 0.783167,-1.94733 0.79375,-0.83608 1.735667,-0.83608 0.783166,0 1.217083,0.52916 v -2.2225 q 0,-0.24341 0.01058,-0.35983 0.02117,-0.127 0.09525,-0.27517 z m -1.7145,5.74675 q 0.275167,0.28575 0.66675,0.28575 0.391584,0 0.645584,-0.28575 0.264583,-0.28575 0.264583,-0.62441 0,-0.34925 -0.254,-0.64559 -0.243417,-0.29633 -0.66675,-0.29633 -0.423333,0 -0.677333,0.29633 -0.254,0.28575 -0.254,0.635 0,0.34925 0.275166,0.635 z" />
    <path
       inkscape:connector-curvature="0"
       id="path4608"
       style="font-style:normal;font-variant:normal;font-weight:normal;font-stretch:normal;font-size:medium;line-height:1.25;font-family:'Fredoka One';-inkscape-font-specification:'Fredoka One';letter-spacing:0px;word-spacing:0px;fill:#000000;fill-opacity:1;stroke:none;stroke-width:0.26458332"
       d="m 96.924769,119.96152 q 0.201083,0.0635 0.328083,0.22225 0.137584,0.14817 0.137584,0.48684 0,0.33866 -0.201084,0.74083 -0.201083,0.40217 -0.582083,0.40217 -0.1905,0 -0.370416,-0.0847 -0.169334,-0.0847 -0.455084,-0.0847 -0.28575,0 -0.53975,0.20109 -0.243416,0.20108 -0.243416,0.48683 v 2.2225 q 0,0.24342 -0.02117,0.37042 -0.01058,0.11641 -0.09525,0.27516 -0.15875,0.27517 -0.8255,0.27517 -0.508,0 -0.73025,-0.17992 -0.169333,-0.14816 -0.1905,-0.45508 0,-0.10583 0,-0.30692 v -3.71475 q 0,-0.24341 0.01058,-0.35983 0.02117,-0.127 0.09525,-0.27517 0.148167,-0.28575 0.8255,-0.28575 0.635,0 0.79375,0.24342 0.116417,0.16933 0.116417,0.34925 0.05292,-0.0741 0.148167,-0.17992 0.105833,-0.10583 0.433916,-0.28575 0.328084,-0.17991 0.5715,-0.17991 0.254,0 0.423333,0.0317 0.169334,0.0212 0.370417,0.0847 z" />
    <path
       inkscape:connector-curvature="0"
       id="path4610"
       style="font-style:normal;font-variant:normal;font-weight:normal;font-stretch:normal;font-size:medium;line-height:1.25;font-family:'Fredoka One';-inkscape-font-specification:'Fredoka One';letter-spacing:0px;word-spacing:0px;fill:#000000;fill-opacity:1;stroke:none;stroke-width:0.26458332"
       d="m 97.97285,120.82936 q 0,-0.24342 0.01058,-0.35984 0.02117,-0.127 0.09525,-0.28575 0.148167,-0.27516 0.8255,-0.27516 0.508,0 0.719667,0.17991 0.179917,0.14817 0.1905,0.45509 0.01058,0.10583 0.01058,0.30691 v 3.70417 q 0,0.24342 -0.02117,0.37042 -0.01058,0.11641 -0.09525,0.27516 -0.137584,0.27517 -0.814917,0.27517 -0.66675,0 -0.814917,-0.28575 -0.07408,-0.15875 -0.09525,-0.27517 -0.01058,-0.11641 -0.01058,-0.37041 z m 1.735667,-1.95792 q -0.07408,0.14817 -0.275167,0.21167 -0.201083,0.0635 -0.53975,0.0635 -0.328083,0 -0.529167,-0.0635 -0.201083,-0.0635 -0.28575,-0.22225 -0.07408,-0.15875 -0.09525,-0.27517 -0.01058,-0.127 -0.01058,-0.37042 0,-0.24341 0.01058,-0.35983 0.02117,-0.127 0.09525,-0.27517 0.148167,-0.28575 0.8255,-0.28575 0.66675,0 0.804334,0.28575 0.08467,0.15875 0.09525,0.28575 0.02117,0.11642 0.02117,0.35984 0,0.24341 -0.02117,0.37041 -0.01058,0.11642 -0.09525,0.27517 z" />
    <path
       inkscape:connector-curvature="0"
       id="path4612"
       style="font-style:normal;font-variant:normal;font-weight:normal;font-stretch:normal;font-size:medium;line-height:1.25;font-family:'Fredoka One';-inkscape-font-specification:'Fredoka One';letter-spacing:0px;word-spacing:0px;fill:#000000;fill-opacity:1;stroke:none;stroke-width:0.26458332"
       d="m 106.30045,120.02502 q 0.55033,0.32809 0.55033,0.6985 0,0.21167 -0.21167,0.58209 l -2.19075,3.75708 q -0.10583,0.17992 -0.33866,0.32808 -0.23284,0.13759 -0.46567,0.13759 -0.22225,0 -0.43392,-0.10584 -0.20108,-0.11641 -0.28575,-0.23283 l -0.0952,-0.11642 -2.20133,-3.76766 q -0.21167,-0.34925 -0.21167,-0.5715 0,-0.381 0.55034,-0.70909 0.40216,-0.23283 0.635,-0.23283 0.23283,0 0.35983,0.14817 0.13758,0.13758 0.28575,0.42333 l 1.38642,2.667 1.38641,-2.667 q 0.11642,-0.20108 0.16934,-0.28575 0.0635,-0.0952 0.1905,-0.17992 0.127,-0.0953 0.33866,-0.0953 0.21167,0 0.58209,0.22225 z" />
    <path
       inkscape:connector-curvature="0"
       id="path4614"
       style="font-style:normal;font-variant:normal;font-weight:normal;font-stretch:normal;font-size:medium;line-height:1.25;font-family:'Fredoka One';-inkscape-font-specification:'Fredoka One';letter-spacing:0px;word-spacing:0px;fill:#000000;fill-opacity:1;stroke:none;stroke-width:0.26458332"
       d="m 112.50625,122.02527 q 0,0.64559 -0.32809,0.96309 -0.3175,0.30691 -0.70908,0.30691 h -2.50825 q 0,0.29634 0.34925,0.49742 0.34925,0.20108 0.6985,0.20108 0.61383,0 0.96308,-0.127 l 0.11642,-0.0423 q 0.254,-0.11642 0.42333,-0.11642 0.33867,0 0.58209,0.47625 0.13758,0.28575 0.13758,0.48684 0,0.94191 -2.25425,0.94191 -0.78317,0 -1.397,-0.26458 -0.60325,-0.27517 -0.94192,-0.71967 -0.66675,-0.85725 -0.66675,-1.91558 0,-1.3335 0.85725,-2.12725 0.86784,-0.80433 2.159,-0.80433 1.47109,0 2.159,1.03716 0.35984,0.55034 0.35984,1.2065 z m -2.23309,0.30692 q 0.40217,0 0.40217,-0.33867 0,-0.24341 -0.1905,-0.39158 -0.17992,-0.14817 -0.52917,-0.14817 -0.33866,0 -0.67733,0.28575 -0.33867,0.27517 -0.33867,0.59267 z" />
    <g
       id="g3793"
       transform="translate(0,-0.0462998)"
       style="fill:#574b90;fill-opacity:1">
      <path
         id="rect3723"
         transform="scale(0.26458333)"
         d="m 201.49609,442.20508 c -2.00225,0 -3.61523,1.61103 -3.61523,3.61328 v 26.78711 c 0,2.00225 1.61298,3.61523 3.61523,3.61523 h 49.33985 c 2.00225,0 3.61328,-1.61298 3.61328,-3.61523 v -26.78711 c 0,-2.00225 -1.61103,-3.61328 -3.61328,-3.61328 h -3.19336 l -0.64649,2.70312 c -0.46012,1.92382 -2.20757,3.52149 -4.94921,3.52149 h -31.76172 c -2.74167,0 -4.4891,-1.59767 -4.94922,-3.52149 l -0.64649,-2.70312 z m 14.08399,12.5664 a 4.040578,4.040578 0 0 1 4.04101,4.04102 4.040578,4.040578 0 0 1 -4.04101,4.04102 4.040578,4.040578 0 0 1 -4.03906,-4.04102 4.040578,4.040578 0 0 1 4.03906,-4.04102 z m 22.14062,0 a 4.0405781,4.0405781 0 0 1 4.03907,4.04102 4.0405781,4.0405781 0 0 1 -4.03907,4.04102 4.0405781,4.0405781 0 0 1 -4.04101,-4.04102 4.0405781,4.0405781 0 0 1 4.04101,-4.04102 z"
         style="fill:#574b90;fill-opacity:1;stroke-width:0.57171685"
         inkscape:connector-curvature="0" />
      <path
         transform="scale(0.26458333)"
         id="rect3744-6"
         d="m 206.76953,442.20508 0.19922,0.90625 c 0.42407,1.92382 2.03381,3.52344 4.56055,3.52344 h 29.27148 c 2.52674,0 4.13843,-1.59962 4.5625,-3.52344 l 0.19922,-0.90625 z"
         style="fill:#574b90;fill-opacity:1;stroke-width:0.64224648"
         inkscape:connector-curvature="0" />
    </g>
  </g>
</svg>
